# xmcd
#
# Track frame offsets:
#	150
#	48623
#	64898
#	88745
#	102458
#	116880
#	142070
#
# Disc length: 2140 seconds
#
# Revision: 0
# Processed by: cddbd v1.5.1PL0 Copyright (c) Steve Scherf et al.
# Submitted via: EasyCDDAExtractor 8.2.1.1
#
DISCID=6d085a07
DTITLE=Gareth R. Craft/Itchy Feet - Live and Studio Sessions
DYEAR=1990
DGENRE=Blues
TTITLE0=Data [CD-ROM Data Track - mp3 files)
TTITLE1=D Flat Minor Blues
TTITLE2=Video Blues
TTITLE3=Dreams
TTITLE4=D Flat Minor Blues
TTITLE5=Video Blues II
TTITLE6=Song For My Father
EXTD=
EXTT0=
EXTT1=
EXTT2=
EXTT3=
EXTT4=
EXTT5=
EXTT6=
PLAYORDER=
